<svg xmlns="http://www.w3.org/2000/svg" aria-hidden="true" style="position:absolute;width:0;height:0;overflow:hidden"><defs><symbol id="icon-Arrow" viewBox="0 0 82 32"><path d="M81.414 17.414a2 2 0 0 0 0-2.828L68.686 1.858a2 2 0 1 0-2.828 2.828L77.172 16 65.858 27.314a2 2 0 1 0 2.828 2.828l12.728-12.728zM0 18h80v-4H0v4z"/></symbol><symbol id="icon-arrowBtn" viewBox="0 0 32 32"><path d="M10.586 3.272a2 2 0 0 0 0 2.828l9.9 9.9-9.9 9.9a1.998 1.998 0 0 0 .025 2.804 2.001 2.001 0 0 0 2.804.025l11.314-11.314a2 2 0 0 0 0-2.828L13.415 3.273a2 2 0 0 0-2.828 0z"/></symbol><symbol id="icon-clarity_close-line" viewBox="0 0 32 32"><path d="m17.253 15.751 7.369-7.317a.875.875 0 0 0-.047-1.198.893.893 0 0 0-1.206-.046L16 14.507 8.631 7.181a.896.896 0 0 0-1.262 0 .885.885 0 0 0 0 1.254l7.378 7.317-7.378 7.317a.873.873 0 0 0-.249.992.883.883 0 0 0 .503.5.896.896 0 0 0 1-.247l7.378-7.317 7.369 7.317a.894.894 0 0 0 1.206-.046.875.875 0 0 0 .047-1.198l-7.369-7.317z"/></symbol><symbol id="icon-facebook" viewBox="0 0 16 32"><path d="M14.143 15.972h-4.034v14.865H3.997V15.972H1.09v-5.224h2.907V7.367c0-2.418 1.142-6.203 6.166-6.203l4.527.019v5.071h-3.285c-.539 0-1.296.271-1.296 1.424v3.075h4.567l-.534 5.219z"/></symbol><symbol id="icon-github" viewBox="0 0 32 32"><path d="M16 0C7.212 0 0 7.212 0 16c0 7.499 5.262 14.312 12.25 16v-5.293c-.692.152-1.33.156-2.034-.052-.946-.279-1.714-.909-2.284-1.869-.364-.613-1.008-1.278-1.68-1.23l-.165-1.868c1.453-.124 2.711.886 3.457 2.14.332.558.713.884 1.203 1.029.473.14.982.072 1.574-.137.149-1.186.692-1.63 1.102-2.255v-.001c-4.167-.622-5.828-2.832-6.488-4.578-.874-2.317-.405-5.212 1.14-7.041.03-.036.084-.129.063-.194-.708-2.139.155-3.909.187-4.097.817.242.95-.243 3.551 1.337l.449.27c.188.112.129.048.317.034A13.544 13.544 0 0 1 16 7.723c1.136.015 2.273.178 3.404.484l.145.015c-.013-.002.04-.009.127-.062 3.248-1.968 3.132-1.324 4.003-1.608.032.188.883 1.987.182 4.099-.095.291 2.816 2.956 1.203 7.235-.659 1.746-2.32 3.957-6.487 4.578v.001c.534.814 1.176 1.247 1.173 2.927V32C26.738 30.312 32 23.499 32 16c0-8.788-7.212-16-16-16z"/></symbol><symbol id="icon-mobileMenu" viewBox="0 0 32 32"><path fill="#fff" d="M26.733 14H5.266c-.7 0-1.267.425-1.267.95v.1c0 .525.567.95 1.267.95h21.467c.7 0 1.267-.425 1.267-.95v-.1c0-.525-.567-.95-1.267-.95zM26.733 20H5.266c-.7 0-1.267.425-1.267.95v.1c0 .525.567.95 1.267.95h21.467c.7 0 1.267-.425 1.267-.95v-.1c0-.525-.567-.95-1.267-.95zM26.733 8H5.266c-.7 0-1.267.425-1.267.95v.1c0 .525.567.95 1.267.95h21.467c.7 0 1.267-.425 1.267-.95v-.1c0-.525-.567-.95-1.267-.95z" style="fill:var(--color2, #fff)"/></symbol><symbol id="icon-mobileMenuClose" viewBox="0 0 32 32"><path fill="#fcfcfc" d="M23.884 6.706 16 14.59 8.116 6.706a.995.995 0 0 0-1.38.031 1 1 0 0 0-.031 1.38l7.88 7.884-7.882 7.882a1.002 1.002 0 0 0-.018 1.427.998.998 0 0 0 1.427-.015l7.886-7.882 7.884 7.884a1 1 0 0 0 1.38-.03 1 1 0 0 0 .03-1.38l-7.884-7.884 7.884-7.886a1.002 1.002 0 0 0 .018-1.427.998.998 0 0 0-1.427.015v.002z" style="fill:var(--color3, #fcfcfc)"/></symbol><symbol id="icon-revdots" viewBox="0 0 177 32"><path fill="#84a178" d="M29.538 14.773c0 8.159-6.612 14.773-14.769 14.773S0 22.932 0 14.773C0 6.614 6.612 0 14.769 0s14.769 6.614 14.769 14.773z" style="fill:var(--color1, #84a178)"/><path fill="#d9d9d9" d="M103.385 14.773c0 8.159-6.612 14.773-14.769 14.773s-14.769-6.614-14.769-14.773C73.847 6.614 80.459 0 88.616 0s14.769 6.614 14.769 14.773zM177.231 14.773c0 8.159-6.612 14.773-14.769 14.773s-14.769-6.614-14.769-14.773C147.693 6.614 154.305 0 162.462 0s14.769 6.614 14.769 14.773z" style="fill:var(--color4, #d9d9d9)"/></symbol><symbol id="icon-revdots2" viewBox="0 0 177 32"><path fill="#d9d9d9" d="M29.538 14.773c0 8.159-6.612 14.773-14.769 14.773S0 22.932 0 14.773C0 6.614 6.612 0 14.769 0s14.769 6.614 14.769 14.773z" style="fill:var(--color4, #d9d9d9)"/><path fill="#84a178" d="M103.385 14.773c0 8.159-6.612 14.773-14.769 14.773s-14.769-6.614-14.769-14.773C73.847 6.614 80.459 0 88.616 0s14.769 6.614 14.769 14.773z" style="fill:var(--color1, #84a178)"/><path fill="#d9d9d9" d="M177.231 14.773c0 8.159-6.612 14.773-14.769 14.773s-14.769-6.614-14.769-14.773C147.693 6.614 154.305 0 162.462 0s14.769 6.614 14.769 14.773z" style="fill:var(--color4, #d9d9d9)"/></symbol><symbol id="icon-revdots3" viewBox="0 0 177 32"><path fill="#d9d9d9" d="M29.538 14.773c0 8.159-6.612 14.773-14.769 14.773S0 22.932 0 14.773C0 6.614 6.612 0 14.769 0s14.769 6.614 14.769 14.773zM103.385 14.773c0 8.159-6.612 14.773-14.769 14.773s-14.769-6.614-14.769-14.773C73.847 6.614 80.459 0 88.616 0s14.769 6.614 14.769 14.773z" style="fill:var(--color4, #d9d9d9)"/><path fill="#84a178" d="M177.231 14.773c0 8.159-6.612 14.773-14.769 14.773s-14.769-6.614-14.769-14.773C147.693 6.614 154.305 0 162.462 0s14.769 6.614 14.769 14.773z" style="fill:var(--color1, #84a178)"/></symbol><symbol id="icon-telegram" viewBox="0 0 44 32"><path d="m17.344 21.048-.675 8.86c.966 0 1.384-.387 1.885-.852l4.527-4.038 9.381 6.412c1.72.895 2.933.424 3.397-1.477l6.157-26.929.002-.002c.546-2.374-.92-3.302-2.596-2.72L3.228 13.235c-2.47.895-2.433 2.18-.42 2.762l9.253 2.686L33.555 6.131c1.011-.625 1.931-.279 1.175.346l-17.386 14.57z"/></symbol></defs></svg>